<svg width="38" height="38" viewBox="0 0 38 38" fill="none" xmlns="http://www.w3.org/2000/svg">
<path d="M21.0416 23.2219L20.5749 24.8284C20.1036 26.4508 19.868 27.262 19.5051 27.4675C19.1917 27.6449 18.8083 27.6449 18.4949 27.4675C18.132 27.262 17.8964 26.4508 17.4251 24.8284L16.9584 23.2219L16.9584 23.2219C16.7792 22.6049 16.6896 22.2965 16.522 22.043C16.3736 21.8186 16.1814 21.6264 15.957 21.478C15.7035 21.3104 15.3951 21.2208 14.7781 21.0416L14.7781 21.0416L13.1716 20.5749C11.5492 20.1036 10.738 19.868 10.5325 19.5051C10.3551 19.1917 10.3551 18.8083 10.5325 18.4949C10.738 18.132 11.5492 17.8964 13.1716 17.4251L14.7781 16.9584L14.7781 16.9584C15.3951 16.7792 15.7035 16.6896 15.957 16.522C16.1814 16.3736 16.3736 16.1814 16.522 15.957C16.6896 15.7035 16.7792 15.3951 16.9584 14.7781L16.9584 14.7781L17.4251 13.1716C17.8964 11.5492 18.132 10.738 18.4949 10.5325C18.8083 10.3551 19.1917 10.3551 19.5051 10.5325C19.868 10.738 20.1036 11.5492 20.5749 13.1716L21.0416 14.7781L21.0416 14.7781C21.2208 15.3951 21.3104 15.7035 21.478 15.957C21.6264 16.1814 21.8186 16.3736 22.043 16.522C22.2965 16.6896 22.6049 16.7792 23.2219 16.9584L23.2219 16.9584L24.8284 17.4251C26.4508 17.8964 27.262 18.132 27.4675 18.4949C27.6449 18.8083 27.6449 19.1917 27.4675 19.5051C27.262 19.868 26.4508 20.1036 24.8284 20.5749L23.2219 21.0416L23.2219 21.0416C22.6049 21.2208 22.2965 21.3104 22.043 21.478C21.8186 21.6264 21.6264 21.8186 21.478 22.043C21.3104 22.2965 21.2208 22.6049 21.0416 23.2219L21.0416 23.2219Z" stroke="#633DA2" stroke-width="1.5"/>
<path d="M12.4228 12.9495L12.0113 14.2037C11.9285 14.456 11.5715 14.456 11.4887 14.2037L11.0772 12.9495C10.9954 12.7002 10.7998 12.5046 10.5505 12.4228L9.29632 12.0113C9.04397 11.9285 9.04397 11.5715 9.29632 11.4887L10.5505 11.0772C10.7998 10.9954 10.9954 10.7998 11.0772 10.5505L11.4887 9.29632C11.5715 9.04397 11.9285 9.04397 12.0113 9.29632L12.4228 10.5505C12.5046 10.7998 12.7002 10.9954 12.9495 11.0772L14.2037 11.4887C14.456 11.5715 14.456 11.9285 14.2037 12.0113L12.9495 12.4228C12.7002 12.5046 12.5046 12.7002 12.4228 12.9495Z" fill="#633DA2"/>
<path d="M26.9228 27.4495L26.5113 28.7037C26.4285 28.956 26.0715 28.956 25.9887 28.7037L25.5772 27.4495C25.4954 27.2002 25.2998 27.0046 25.0505 26.9228L23.7963 26.5113C23.544 26.4285 23.544 26.0715 23.7963 25.9887L25.0505 25.5772C25.2998 25.4954 25.4954 25.2998 25.5772 25.0505L25.9887 23.7963C26.0715 23.544 26.4285 23.544 26.5113 23.7963L26.9228 25.0505C27.0046 25.2998 27.2002 25.4954 27.4495 25.5772L28.7037 25.9887C28.956 26.0715 28.956 26.4285 28.7037 26.5113L27.4495 26.9228C27.2002 27.0046 27.0046 27.2002 26.9228 27.4495Z" fill="#633DA2"/>
</svg>
